<svg xmlns="http://www.w3.org/2000/svg" viewBox="0 0 2500 2500"><path fill="#fff" d="M1326.55 586.56v844.05c0 45.14-36.62 81.76-81.76 81.76H472.07c-45.14 0-81.76-36.62-81.76-81.76V586.56c0-45.14 36.62-81.76 81.76-81.76h772.72c45.14 0 81.76 36.62 81.76 81.76"/><path fill="#030047" d="M1244.79 1516.14H472.07c-47.16 0-85.53-38.37-85.53-85.52V586.56c0-47.16 38.37-85.52 85.53-85.52h772.72c47.16 0 85.53 38.37 85.53 85.52v844.05c-.01 47.16-38.38 85.53-85.53 85.53M472.07 508.56c-43.01 0-78 34.99-78 78v844.05c0 43.01 34.99 78 78 78h772.72c43.01 0 78-34.99 78-78V586.56c0-43.01-34.99-78-78-78H472.07"/><path fill="#ffcc3d" d="M1154.34 853.66H543.03c-6.44 0-11.66-5.22-11.66-11.66V666.81c0-6.44 5.22-11.66 11.66-11.66h611.31c6.44 0 11.66 5.22 11.66 11.66V842c0 6.43-5.22 11.66-11.66 11.66"/><path fill="#030047" d="M1107.51 857.42H589.85c-34.32 0-62.24-27.92-62.24-62.25v-81.54c0-34.32 27.92-62.25 62.24-62.25h517.66c34.32 0 62.25 27.92 62.25 62.25v81.54c0 34.32-27.92 62.25-62.25 62.25M589.85 658.91c-30.17 0-54.72 24.55-54.72 54.72v81.54c0 30.17 24.55 54.72 54.72 54.72h517.66c30.17 0 54.72-24.55 54.72-54.72v-81.54c0-30.17-24.55-54.72-54.72-54.72zM2246.24 1997.84H390.3c-2.08 0-3.76-1.68-3.76-3.76s1.69-3.76 3.76-3.76h1855.94c2.08 0 3.76 1.68 3.76 3.76 0 2.07-1.69 3.76-3.76 3.76"/><path fill="#605efd" d="M1648.32 1339.35s148.12 16.57 202 26c39.24 6.87 133.4 29.38 185.04 46.24 22.57 7.37 37.48 28.85 36.45 52.58l-20.49 473.18h-569.99z"/><path fill="#fff" d="m1773.14 1457.38 8.01 35.24-43.25 274.28 60.01 72.2 67.06-64.72-34.17-276.03 27.76-27.22-40.04-45.92zM1699.77 1904.33l-41.43-20.72c-2.66-1.66-4.77-3.86-6.37-6.47-2.66-4.61-3.26-10.53-1.25-15.9 3.91-10.58 16.25-15.2 26.28-9.93l131.87 38.77-18.61 158.56"/><path fill="#030047" d="M1790.26 2052.4c-.15 0-.29-.01-.44-.03a3.764 3.764 0 0 1-3.3-4.17l18.24-155.4-128.83-37.88c-.24-.07-.47-.16-.69-.28-3.87-2.03-8.41-2.31-12.45-.75-4.02 1.54-7.06 4.62-8.55 8.66-1.57 4.19-1.2 8.94.98 12.72 1.29 2.1 3.03 3.87 5.1 5.16l41.13 20.54c1.86.93 2.61 3.19 1.68 5.05a3.759 3.759 0 0 1-5.05 1.68l-41.43-20.72c-3.38-2.08-5.93-4.67-7.89-7.86-3.34-5.8-3.91-12.94-1.57-19.19 2.22-6 6.92-10.76 12.91-13.06 5.94-2.29 12.59-1.94 18.3.94l131.53 38.67c1.76.52 2.89 2.23 2.68 4.05L1794 2049.09a3.776 3.776 0 0 1-3.74 3.31"/><path fill="#fff" d="M1159.05 726.59c12.62-6.68 27.49-.11 31.52 12.86-3.59-11.61-11.14-35.82 10.37-40.65 11.89-2.67 23.94 2.83 27.58 14.39l-6.62-21.18c-4.3-13.94 5.89-28.94 22.02-28.6 9.31.16 17.3 6.66 20.06 15.52v.11l5.57 18.15c-2.14-13.41 8.93-26.79 24.37-25.53 8.77.65 16.12 6.99 18.71 15.42l.05.05 39.13 127.66 26.75-24.79c12.76-11.82 32.9-10.04 43.37 3.8 3.93 5.23 5.91 11.39 5.95 17.55.04 7.04-2.41 14.03-7.35 19.64l-24.62 27.86a62.364 62.364 0 0 0-13.29 58.26l-166.16 53.54-10.48-33.55-57.16-183.67c-3.2-10.2.79-21.81 10.23-26.84"/><path fill="#030047" d="M1216.46 974.42a3.76 3.76 0 0 1-3.59-2.64l-67.65-217.22c-3.86-12.34 1.21-25.5 12.06-31.29 0 0 .01 0 .01-.01 6.91-3.66 14.96-4.07 22.08-1.13 1.24.51 2.44 1.12 3.57 1.81-.86-6.56-.55-13.37 2.7-18.97 2.91-5.03 7.78-8.34 14.47-9.85 7.06-1.58 13.88-.69 19.49 2.16l-1.3-4.15c-2.45-7.92-.93-16.6 4.06-23.21 5.06-6.71 12.96-10.46 21.63-10.27 10.77.19 20.25 7.49 23.58 18.17.05.15.09.31.11.47l1.01 3.29c1.04-1.92 2.32-3.72 3.83-5.34 5.52-5.96 13.45-8.99 21.71-8.31 9.9.73 18.64 7.8 21.86 17.63.08.16.15.33.2.5l37.37 121.93 22.35-20.71c6.86-6.36 16.17-9.53 25.44-8.71 9.3.82 17.86 5.56 23.49 13 4.35 5.79 6.67 12.63 6.71 19.8.05 8.17-2.9 16.03-8.29 22.15l-24.62 27.86c-13.26 15.01-17.93 35.47-12.49 54.75.55 1.95-.54 3.98-2.47 4.6l-166.16 53.54c-.38.09-.77.15-1.16.15m-55.64-244.51c-7.54 4.02-11.16 13.65-8.41 22.41l66.51 213.6 159.19-51.29c-4.65-20.69.83-42.23 14.98-58.25l24.62-27.86a25.597 25.597 0 0 0 6.41-17.12c-.03-5.54-1.83-10.84-5.19-15.32-4.34-5.74-10.96-9.4-18.14-10.04a25.696 25.696 0 0 0-19.66 6.74l-26.75 24.79c-.95.88-2.29 1.21-3.53.87a3.767 3.767 0 0 1-2.62-2.53l-39-127.24c-.07-.15-.13-.31-.18-.47-2.19-7.12-8.38-12.26-15.39-12.78-6.07-.5-11.6 1.61-15.6 5.93-3.85 4.15-5.63 9.86-4.77 15.26.31 1.95-.94 3.81-2.87 4.26-1.93.45-3.87-.67-4.45-2.56l-5.57-18.15c-.04-.14-.08-.28-.11-.42-2.44-7.39-9.01-12.42-16.43-12.55-6.28-.13-11.89 2.52-15.47 7.28a18.384 18.384 0 0 0-2.89 16.45l6.62 21.16a3.758 3.758 0 0 1-7.17 2.25v-.01c-2.91-9.22-12.63-14.2-23.16-11.84-4.62 1.04-7.77 3.09-9.61 6.28-4.65 8.02-.34 21.97 1.97 29.46 0 .02.01.03.01.05.01.03.02.05.02.08.53 1.95-.56 4.04-2.5 4.64-1.98.61-4.07-.43-4.69-2.41a18.225 18.225 0 0 0-10.48-11.47c-5.12-2.13-10.69-1.84-15.69.8"/><path fill="#fff" d="m1228.48 713.17 16.12 51.76"/><path fill="#030047" d="M1244.6 768.69c-1.6 0-3.09-1.03-3.59-2.64l-16.12-51.75c-.62-1.98.49-4.09 2.47-4.71 1.99-.62 4.1.49 4.71 2.47l16.12 51.75a3.763 3.763 0 0 1-3.59 4.88"/><path fill="#fff" d="m1269.54 697.17 17.04 54.69"/><path fill="#030047" d="M1286.58 755.62c-1.6 0-3.09-1.03-3.59-2.64l-17.03-54.69c-.62-1.98.49-4.09 2.47-4.71 1.98-.62 4.1.49 4.71 2.47l17.03 54.69c.62 1.98-.49 4.09-2.47 4.71-.38.11-.75.17-1.12.17"/><path fill="#fff" d="m1186.49 726.35 16.09 51.66"/><path fill="#030047" d="M1202.58 781.78c-1.6 0-3.09-1.03-3.59-2.64l-16.09-51.67c-.62-1.98.49-4.09 2.47-4.71 1.99-.62 4.1.49 4.71 2.47l16.09 51.67c.62 1.98-.49 4.09-2.47 4.71-.37.11-.75.17-1.12.17"/><path fill="#fff" d="M1351.79 814.79s-34.95 4.34-45.76 35.93"/><path fill="#030047" d="M1306.04 854.48c-.4 0-.81-.07-1.22-.2a3.752 3.752 0 0 1-2.34-4.78c11.43-33.43 47.33-38.26 48.85-38.45a3.76 3.76 0 0 1 .93 7.46c-.33.04-32.78 4.5-42.67 33.41a3.742 3.742 0 0 1-3.55 2.56"/><path fill="#605efd" d="M1654.57 1339.8s-104.44-76.27-128.25-111.44c-43.49-64.22-120.83-329.08-120.83-329.08l-208.33 66.6s97.32 321.05 147.28 400.43c41.11 65.32 238.93 205.61 238.93 205.61z"/><path fill="#030047" d="M1262.86 1171.56a3.74 3.74 0 0 1-3.55-2.53c-35.06-100.99-65.45-201.07-65.75-202.07-.6-1.97.5-4.05 2.45-4.67l208.33-66.6c1.93-.62 3.99.4 4.68 2.3.2.54 19.95 55.27 35.13 121.68.46 2.03-.8 4.04-2.83 4.51a3.75 3.75 0 0 1-4.5-2.83c-12.92-56.51-29.16-104.47-33.67-117.38l-201.32 64.35c5.72 18.68 33.29 108.1 64.58 198.24a3.768 3.768 0 0 1-3.55 5M1572.64 1707.82h-118.6c-8.91 0-15.94-6.04-17.09-14.67l-3.23-24.42c-1.63-12.34 9.18-24.36 21.92-24.36h118.6c8.91 0 15.94 6.04 17.09 14.67l3.23 24.42c1.64 12.35-9.18 24.36-21.92 24.36"/><path fill="#030047" d="M1572.64 1711.58h-118.6c-10.86 0-19.42-7.38-20.82-17.94l-3.23-24.42c-.9-6.85 1.38-13.97 6.27-19.55 5.05-5.76 12.12-9.06 19.39-9.06h118.6c10.86 0 19.42 7.38 20.81 17.94l3.23 24.42c.9 6.85-1.38 13.97-6.27 19.55-5.04 5.76-12.11 9.06-19.38 9.06m-116.98-63.44c-5.1 0-10.11 2.37-13.73 6.5-3.46 3.95-5.08 8.9-4.46 13.6l3.23 24.42c.89 6.71 6.38 11.4 13.36 11.4h118.6c5.1 0 10.11-2.37 13.73-6.5 3.46-3.95 5.08-8.9 4.46-13.6l-3.23-24.42c-.88-6.71-6.38-11.4-13.35-11.4z"/><path fill="#ffcc3d" d="m1378.48 1676.1 269.38.39c11.6.02 21.39 8.64 22.88 20.14l41.98 324.34c1.79 13.84-9 26.09-22.95 26.07l-269.38-.39c-11.6-.02-21.39-8.64-22.88-20.14l-41.98-324.34c-1.79-13.84 9-26.09 22.95-26.07"/><path fill="#030047" d="M1689.81 2050.81h-.04l-269.38-.39c-13.44-.02-24.88-10.09-26.61-23.42l-41.98-324.34c-.99-7.67 1.37-15.4 6.48-21.2 5.1-5.79 12.45-9.12 20.17-9.12h.04l269.38.39c13.44.02 24.88 10.09 26.61 23.42l41.98 324.34c.99 7.67-1.37 15.4-6.48 21.2-5.1 5.8-12.45 9.12-20.17 9.12m-311.36-370.95c-5.56 0-10.85 2.39-14.52 6.56a19.356 19.356 0 0 0-4.67 15.26l41.98 324.34c1.24 9.6 9.48 16.85 19.16 16.86l269.38.39h.03c5.56 0 10.85-2.39 14.52-6.56 3.68-4.18 5.38-9.74 4.67-15.27l-41.98-324.34c-1.24-9.6-9.48-16.85-19.16-16.86l-269.38-.39c-.01.01-.02.01-.03.01"/><path fill="#fff" d="m1790.26 2048.64-171.2-2.46c-5.37-.8-9.73-4.71-12.24-9.08-1.76-2.96-2.66-6.32-2.31-9.93.65-9.08 8.38-16.5 17.51-16.15h31l-57.68-.3c-6.57 0-12.94-3.26-16.35-8.98-.05-.05-.05-.1-.05-.1-1.76-2.96-2.66-6.37-2.31-9.93.65-9.08 8.38-16.5 17.46-16.15h58.94l-88.03-.3c-5.37-.8-9.68-4.77-12.24-9.13a16.334 16.334 0 0 1-2.31-9.88c.65-9.08 8.38-15.95 17.51-15.65l85.07-.8h-61.85c-5.37-.8-9.73-4.76-12.24-9.13-1.76-2.91-2.66-6.32-2.31-9.88.65-9.08 8.38-16 17.46-15.65l105.69-.8"/><path fill="#030047" d="M1790.26 2052.4h-.05l-171.2-2.46c-.17 0-.34-.02-.5-.04-5.94-.89-11.52-4.97-14.95-10.93-2.23-3.75-3.2-7.97-2.79-12.17.34-4.67 2.21-8.93 5.09-12.27l-10.54-.06c-8.08 0-15.58-4.14-19.56-10.81-.05-.08-.09-.15-.13-.23-2.2-3.77-3.15-7.95-2.74-12.09.34-4.67 2.21-8.93 5.08-12.27l-12.99-.04c-.18 0-.36-.01-.54-.04-5.93-.89-11.37-4.88-14.93-10.95a20.06 20.06 0 0 1-2.81-12.1c.8-11.06 10.2-19.43 21.38-19.09l10.62-.1a24.85 24.85 0 0 1-3.03-4.2c-2.23-3.69-3.21-7.91-2.79-12.13.79-11.06 10.2-19.49 21.35-19.04l105.51-.81c2.11 0 3.78 1.66 3.79 3.73a3.769 3.769 0 0 1-3.73 3.79l-105.69.8c-7.33-.27-13.22 5.06-13.73 12.16-.26 2.69.35 5.31 1.78 7.67 2.29 3.99 5.75 6.68 9.32 7.31h61.55c2.07 0 3.75 1.67 3.76 3.74a3.766 3.766 0 0 1-3.73 3.78l-85.07.8c-7.38-.26-13.28 5.11-13.79 12.16-.23 2.73.38 5.36 1.78 7.67 2.34 3.99 5.8 6.69 9.33 7.31l87.73.3c2.08.01 3.75 1.69 3.75 3.77s-1.69 3.76-3.76 3.76h-58.94c-7.19-.28-13.18 5.41-13.7 12.66-.26 2.69.36 5.33 1.79 7.74.04.07.08.14.12.22 2.65 4.33 7.63 7.02 13.05 7.02l57.7.3c2.07.01 3.75 1.7 3.74 3.77s-1.69 3.75-3.76 3.75h-31c-7.1-.26-13.23 5.41-13.75 12.66-.26 2.73.34 5.3 1.79 7.74 2.26 3.94 5.73 6.61 9.33 7.24l170.92 2.45c2.08.03 3.74 1.74 3.71 3.82a3.78 3.78 0 0 1-3.77 3.71M1977.73 1394.85l-121.41 110-38-75.5 98.22-49.84zM1818.32 1429.35l-64.5 47-30.41-128.23 65.05 8.18z"/><path fill="#605efd" d="M2034.93 1411.45c58.99 20.97 102.25 71.9 113.39 133.51l77.39 347.74c19.03 85.51-46.03 166.65-133.64 166.65h-307.4l11.53-194.21 212.54 5.46-51.24-224.95a122.404 122.404 0 0 1 7.39-80.02z"/><path fill="#030047" d="M2013.93 2063.1h-229.24a3.766 3.766 0 0 1-3.76-3.98l11.53-194.21c.12-2.03 2.07-3.58 3.85-3.54l207.79 5.34-31.84-151.29c-.43-2.03.87-4.03 2.91-4.46 2.03-.43 4.03.87 4.46 2.91l32.82 155.95c.24 1.13-.05 2.3-.79 3.18-.73.88-1.84 1.37-2.99 1.35l-208.91-5.37-11.07 186.6h225.25c2.08 0 3.76 1.68 3.76 3.76s-1.69 3.76-3.77 3.76"/><path fill="#fff" d="m1918.9 1387.83 30.55-158.95-139.46-26.81-30.47 158.53c.09.17.18.32.26.49 9.45 81.19 56.65 88.48 139.12 26.74"/><path fill="#030047" d="M1830.84 1432.63c-6.96 0-13.32-1.25-19.11-3.74-19.37-8.33-31.35-30.84-35.63-66.9-.24-.7-.39-1.53-.28-2.11l30.47-158.53a3.756 3.756 0 0 1 4.4-2.98l139.46 26.81c.98.19 1.84.76 2.41 1.58.56.83.77 1.84.58 2.82l-30.55 158.95c-.18.92-.69 1.74-1.44 2.3-37.36 27.98-67.15 41.8-90.31 41.8m-47.42-72.4c.05.16.09.31.1.43 3.89 33.47 14.39 54.1 31.19 61.33 21.85 9.4 55.75-2.81 100.77-36.3l29.57-153.82-132.07-25.39zm135.48 27.6h.05z"/><path fill="#fff" d="M1946.17 1246.13c49.79-70.84 65.27-187.28 65.27-187.28l-169.74-98.72c-4.26 2.84-122.71 35.92-141.03 168.3-16.31 117.91 14.42 199.02 180.09 169.76"/><path fill="#030047" d="M1818.93 1308.01c-41.3 0-71.96-10.03-92.94-30.25-29.55-28.47-39.05-77.48-29.04-149.85 10.95-79.16 60.56-139.44 139.69-169.76 1.59-.61 2.68-1.01 3.15-1.25 1.2-.8 2.58-.74 3.81-.02l169.73 98.72c1.31.76 2.04 2.24 1.84 3.75-.16 1.17-16.18 118.17-65.92 188.95-1.2 1.7-3.55 2.11-5.24.91a3.767 3.767 0 0 1-.92-5.24c44.71-63.61 61.67-165.98 64.26-183.14l-165.88-96.47c-.56.22-1.26.49-2.15.83-76.45 29.29-124.36 87.45-134.92 163.76-9.66 69.81-.89 116.72 26.81 143.4 28.59 27.55 77.3 34.79 148.9 22.14a3.763 3.763 0 0 1 1.31 7.41c-23.05 4.06-43.85 6.11-62.49 6.11"/><path fill="#030047" d="M1912.73 931.02s55.87-22.02 82.86-1.18c26.99 20.83-3.31 70.07-3.31 70.07s46.4-7.58 69.6 45.45c23.2 53.03-61.08 126.22-61.08 126.22s-48.54-31.68-48.84-31.87c.95.62-2.82 3.04-3.1 3.14-4.35 1.59-11.85-5.37-14.03-8.31-3.99-5.38-4.91-13.19-7.56-19.45-3.14-7.43-7.1-14.5-11.73-21.1-18.07-25.76-46.61-44.46-77.95-48.89-18.46-2.61-37.4-.69-55.72-4.14-22.89-4.31-44.05-17.27-58.31-35.69-14.26-18.43-21.48-42.16-19.91-65.4.91-13.54 5-27.36 14.24-37.29 13.2-14.19 33.9-17.86 53.07-20.76 27.94-4.22 56.75-8.4 84.18-1.63 27.43 6.77 53.47 27.31 57.79 55.24"/><ellipse cx="1750.63" cy="1113.73" fill="#030047" rx="14.56" ry="9.77" transform="rotate(-64.526 1750.513 1113.7)"/><path fill="#fff" d="M1752.76 1083.63c10.37-.26 20.1 6.39 24.71 16.87"/><path fill="#030047" d="M1777.48 1104.26c-1.45 0-2.83-.84-3.45-2.25-4-9.11-12.39-14.84-21.18-14.62-2.16.04-3.8-1.59-3.86-3.67a3.772 3.772 0 0 1 3.67-3.86c11.79-.3 23.01 7.2 28.25 19.11.84 1.9-.03 4.12-1.93 4.96-.48.23-1 .33-1.5.33"/><ellipse cx="1827.28" cy="1150.17" fill="#030047" rx="14.56" ry="9.77" transform="rotate(-64.526 1827.156 1150.135)"/><path fill="#fff" d="M1829.41 1120.07c10.37-.26 20.1 6.39 24.71 16.87"/><path fill="#030047" d="M1854.13 1140.7c-1.45 0-2.83-.84-3.45-2.25-4-9.1-12.28-14.84-21.17-14.62-2.09.02-3.8-1.59-3.86-3.67a3.772 3.772 0 0 1 3.67-3.86c11.92-.27 23.01 7.21 28.25 19.11.84 1.9-.03 4.12-1.93 4.96-.49.23-1.01.33-1.51.33"/><path fill="#fff" d="M1949.46 1140.6s52.68-35.2 75.56-21.6c22.88 13.6-3.65 98.5-34.49 100.82-30.84 2.32-52.07-13.93-52.07-13.93"/><path fill="#030047" d="M1984.43 1223.81c-28.4 0-47.41-14.28-48.26-14.93a3.76 3.76 0 0 1-.7-5.27 3.76 3.76 0 0 1 5.27-.71c.2.15 20.53 15.35 49.5 13.17 15.52-1.17 31.01-28.35 37.02-53.96 4.68-19.94 3.04-35.59-4.17-39.87-17.09-10.15-57.44 12.07-71.55 21.49-1.73 1.15-4.07.69-5.22-1.04a3.767 3.767 0 0 1 1.04-5.22c2.23-1.49 54.94-36.35 79.58-21.71 10.4 6.18 13.26 24.15 7.65 48.06-6.7 28.56-23.89 58.25-43.78 59.74-2.17.17-4.3.25-6.38.25"/><path fill="#030047" d="M1995.08 1181.96a3.75 3.75 0 0 1-3.04-5.96c3.19-4.41 5.5-9.55 6.69-14.87.67-3.03.56-5.15-.35-6.29-.63-.8-1.87-1.3-3.24-1.32-1.49-.04-3.05.44-4.95 1.38-2.84 1.4-5.41 3.43-7.44 5.86a3.769 3.769 0 0 1-5.3.47 3.769 3.769 0 0 1-.47-5.3c2.69-3.22 6.11-5.91 9.87-7.77 2.99-1.48 5.64-2.18 8.36-2.16 3.63.04 7.01 1.59 9.05 4.16 2.42 3.05 3.02 7.17 1.81 12.61a48.151 48.151 0 0 1-7.93 17.65c-.75 1-1.9 1.54-3.06 1.54"/><path fill="#fff" d="M1788.1 1129.51c-4.93 10.52-19.03 38.83-23.96 49.35-2.97 6.34-6 12.95-5.42 19.73.58 6.78 5.85 13.81 13.96 15.05"/><path fill="#030047" d="M1772.68 1217.4c-.19 0-.38-.01-.58-.04-10.35-1.59-16.45-10.49-17.13-18.45-.67-7.92 2.75-15.21 5.76-21.65 2.47-5.27 7.24-15 12.01-24.73 4.75-9.68 9.5-19.37 11.95-24.61a3.761 3.761 0 0 1 6.81 3.19c-2.47 5.27-7.24 15-12.01 24.73-4.75 9.68-9.5 19.37-11.95 24.61-2.62 5.58-5.58 11.9-5.08 17.82.42 4.91 4.34 10.66 10.78 11.65 2.05.32 3.46 2.24 3.15 4.29a3.758 3.758 0 0 1-3.71 3.19M1805.24 1242.39c-4.06 0-8.13-.57-12.05-1.74a3.766 3.766 0 0 1-2.54-4.68c.59-1.99 2.7-3.13 4.68-2.54 8.8 2.61 18.51 1.61 26.61-2.74 8.09-4.36 14.28-11.9 16.96-20.69.6-1.99 2.7-3.11 4.7-2.5a3.75 3.75 0 0 1 2.5 4.69c-3.25 10.68-10.76 19.84-20.59 25.13-6.23 3.36-13.25 5.07-20.27 5.07M1575.66 1603.31c-.33 0-.67-.04-1-.14-2-.55-3.18-2.62-2.63-4.63l48.09-174.34c.55-2 2.64-3.18 4.63-2.63 2 .55 3.18 2.62 2.63 4.63l-48.09 174.34a3.784 3.784 0 0 1-3.63 2.77"/><path fill="#000028" d="M781.39 1961.83v65.26h476.27c15.32 0 27.72-12.4 27.72-27.72v-2.66c0-19.26-15.63-34.89-34.85-34.89H781.39z"/><path fill="#030047" d="M508.07 1651.11h425.81c22.93 0 43.38 14.41 51.11 35.99l121.65 339.97h-471.1c-28.01 0-53-17.6-62.43-43.97l-100.69-281.38c-8.83-24.65 9.46-50.61 35.65-50.61"/><path fill="#fff" d="M721.59 1839.1c3.3 20.62 22.67 37.34 43.29 37.34 20.66 0 34.69-16.72 31.4-37.34s-22.71-37.34-43.33-37.34c-20.63-.01-34.66 16.71-31.36 37.34"/><path fill="#030047" d="M565.57 1159.7h-.06a3.756 3.756 0 0 1-3.7-3.82c.43-25.91.87-33.6 1.29-41.03.42-7.36.85-14.98 1.28-40.72.11-6.76.27-16.02 5.76-22.88 6.31-7.89 17.47-10.49 33.15-7.74l2.83.51c9.11 1.66 18.54 3.37 25.85-.62 11.31-6.17 12.54-22.77 12.35-36.55-.26-19.26-.53-28.26-.79-37.25-.26-9.02-.53-18.04-.79-37.37a3.756 3.756 0 0 1 3.71-3.81c2.24-.03 3.79 1.63 3.81 3.71.26 19.26.53 28.26.79 37.25.26 9.02.53 18.04.79 37.37.22 15.89-1.44 35.17-16.27 43.26-9.65 5.26-20.88 3.22-30.8 1.42l-2.79-.5c-12.77-2.24-21.51-.55-25.97 5.03-3.6 4.49-3.99 10.94-4.11 18.3-.43 25.89-.87 33.58-1.3 41.02-.42 7.36-.85 14.98-1.28 40.73-.02 2.04-1.7 3.69-3.75 3.69"/><path fill="#030047" d="m591.49 1151.21-17.65 24.9c-3.23 4.55-9.99 4.55-13.22 0l-17.65-24.9c-3.8-5.36.03-12.78 6.61-12.78h35.29c6.59 0 10.42 7.42 6.62 12.78"/><path fill="#e6f3fc" d="M658.05 1360.67H476.42c-2.47 0-4.48-2-4.48-4.48V1221.1c0-2.47 2-4.48 4.48-4.48h181.64c2.47 0 4.48 2 4.48 4.48v135.09a4.494 4.494 0 0 1-4.49 4.48"/><path fill="#030047" d="M640.08 1364.43H494.39c-14.45 0-26.21-11.76-26.21-26.21v-99.14c0-14.45 11.76-26.21 26.21-26.21h145.69c14.45 0 26.21 11.76 26.21 26.21v99.14c0 14.45-11.76 26.21-26.21 26.21m-145.69-144.04c-10.3 0-18.69 8.38-18.69 18.69v99.14c0 10.3 8.38 18.69 18.69 18.69h145.69c10.3 0 18.69-8.38 18.69-18.69v-99.14c0-10.3-8.38-18.69-18.69-18.69z"/><path fill="#030047" d="M620.06 1275.76H514.41c-2.08 0-3.76-1.68-3.76-3.76s1.69-3.76 3.76-3.76h105.66c2.08 0 3.76 1.68 3.76 3.76s-1.69 3.76-3.77 3.76M590.06 1309.06H514.4c-2.08 0-3.76-1.68-3.76-3.76s1.69-3.76 3.76-3.76h75.66c2.08 0 3.76 1.68 3.76 3.76s-1.68 3.76-3.76 3.76M1131.79 1159.7c-2.05 0-3.73-1.64-3.76-3.7-.43-25.74-.86-33.35-1.28-40.72-.42-7.44-.86-15.13-1.29-41.03-.12-7.36-.52-13.81-4.11-18.3-4.47-5.58-13.21-7.28-25.98-5.03l-2.79.5c-9.91 1.8-21.15 3.84-30.8-1.42-14.83-8.09-16.49-27.37-16.27-43.26.26-19.32.53-28.34.79-37.37.26-8.99.53-17.98.79-37.25.03-2.08 1.76-3.75 3.81-3.71 2.08.03 3.74 1.74 3.71 3.81-.26 19.32-.53 28.34-.79 37.37-.26 8.99-.53 17.98-.79 37.25-.19 13.78 1.05 30.38 12.35 36.55 7.31 3.99 16.73 2.28 25.85.62l2.83-.51c15.69-2.75 26.84-.15 33.15 7.74 5.5 6.86 5.65 16.12 5.76 22.88.43 25.75.86 33.37 1.28 40.73.43 7.44.86 15.13 1.3 41.02a3.756 3.756 0 0 1-3.7 3.82c-.01.01-.03.01-.06.01"/><path fill="#030047" d="m1105.87 1151.21 17.65 24.9c3.23 4.55 9.99 4.55 13.22 0l17.65-24.9c3.8-5.36-.03-12.78-6.61-12.78h-35.29c-6.58 0-10.42 7.42-6.62 12.78M834.16 1151.21l17.65 24.9c3.23 4.55 9.99 4.55 13.22 0l17.65-24.9c3.8-5.36-.03-12.78-6.61-12.78h-35.29c-6.59 0-10.42 7.42-6.62 12.78"/><path fill="#e6f3fc" d="M1220.95 1360.67h-181.64c-2.47 0-4.48-2-4.48-4.48V1221.1c0-2.47 2-4.48 4.48-4.48h181.64c2.47 0 4.48 2 4.48 4.48v135.09a4.485 4.485 0 0 1-4.48 4.48"/><path fill="#030047" d="M1202.97 1364.43h-145.69c-14.45 0-26.21-11.76-26.21-26.21v-99.14c0-14.45 11.76-26.21 26.21-26.21h145.69c14.45 0 26.21 11.76 26.21 26.21v99.14c0 14.45-11.75 26.21-26.21 26.21m-145.69-144.04c-10.3 0-18.69 8.38-18.69 18.69v99.14c0 10.3 8.38 18.69 18.69 18.69h145.69c10.3 0 18.69-8.38 18.69-18.69v-99.14c0-10.3-8.38-18.69-18.69-18.69z"/><path fill="#030047" d="M1182.96 1275.76H1077.3c-2.08 0-3.76-1.68-3.76-3.76s1.69-3.76 3.76-3.76h105.66c2.08 0 3.76 1.68 3.76 3.76s-1.69 3.76-3.76 3.76M1152.96 1309.06h-75.65c-2.08 0-3.76-1.68-3.76-3.76s1.69-3.76 3.76-3.76h75.65c2.08 0 3.76 1.68 3.76 3.76s-1.69 3.76-3.76 3.76"/><path fill="#e6f3fc" d="M939.5 1360.67H757.86c-2.47 0-4.48-2-4.48-4.48V1221.1c0-2.47 2-4.48 4.48-4.48H939.5c2.47 0 4.48 2 4.48 4.48v135.09c0 2.48-2.01 4.48-4.48 4.48"/><path fill="#030047" d="M921.53 1364.43H775.84c-14.45 0-26.21-11.76-26.21-26.21v-99.14c0-14.45 11.76-26.21 26.21-26.21h145.69c14.45 0 26.21 11.76 26.21 26.21v99.14c0 14.45-11.76 26.21-26.21 26.21m-145.69-144.04c-10.3 0-18.69 8.38-18.69 18.69v99.14c0 10.3 8.38 18.69 18.69 18.69h145.69c10.3 0 18.69-8.38 18.69-18.69v-99.14c0-10.3-8.38-18.69-18.69-18.69z"/><path fill="#030047" d="M901.51 1275.76H795.85c-2.08 0-3.76-1.68-3.76-3.76s1.69-3.76 3.76-3.76h105.66c2.08 0 3.76 1.68 3.76 3.76s-1.68 3.76-3.76 3.76M871.51 1309.06h-75.65c-2.08 0-3.76-1.68-3.76-3.76s1.69-3.76 3.76-3.76h75.65c2.08 0 3.76 1.68 3.76 3.76s-1.69 3.76-3.76 3.76M858.42 1151.06c-2.08 0-3.76-1.68-3.76-3.76V932.18c0-2.08 1.69-3.76 3.76-3.76s3.76 1.68 3.76 3.76v215.12c0 2.08-1.69 3.76-3.76 3.76M1753.35 801.92H1491.2c-28.41 0-51.43-23.03-51.43-51.43V488.33c0-28.41 23.03-51.43 51.43-51.43h262.15c28.41 0 51.43 23.03 51.43 51.43v262.15c0 28.41-23.03 51.44-51.43 51.44"/><path fill="#fff" d="M1719.38 623.67c0 54.41-44.12 98.53-98.53 98.53-54.45 0-98.57-44.12-98.57-98.53 0-54.45 44.12-98.57 98.57-98.57.48 0 .97 0 1.41.04 52.34.7 94.79 42.24 96.99 94.27.08 1.4.13 2.81.13 4.26"/><path fill="#605efd" d="M1766.32 641.6h-141.26l-2.8-159.49c76.23 1.03 138.06 61.51 144.06 159.49"/><g fill="#ffcc3d"><path d="m1229.51 1713.08-26.66 26.65c-12.53 12.42-32.71 12.42-45.13 0l-26.66-26.65c-12.42-12.43-12.42-32.61 0-45.03l26.66-26.76c12.42-12.42 32.6-12.42 45.13 0l26.66 26.76c12.43 12.43 12.43 32.6 0 45.03M318.57 1134.42l-16.96 16.96c-7.97 7.91-20.81 7.91-28.72 0l-16.96-16.96c-7.91-7.91-7.91-20.75 0-28.65l16.96-17.03c7.91-7.91 20.74-7.91 28.72 0l16.96 17.03c7.9 7.91 7.9 20.74 0 28.65M2132.71 1328.19l-15.05 15.05c-7.08 7.02-18.47 7.02-25.48 0l-15.05-15.05c-7.02-7.02-7.02-18.41 0-25.43l15.05-15.11c7.02-7.02 18.41-7.02 25.48 0l15.05 15.11c7.01 7.02 7.01 18.41 0 25.43"/></g><path fill="#030047" d="M1055.86 717.46H656.71c-2.08 0-3.76-1.68-3.76-3.76s1.69-3.76 3.76-3.76h399.15c2.08 0 3.76 1.68 3.76 3.76s-1.68 3.76-3.76 3.76M1055.86 755.62H656.71c-2.08 0-3.76-1.68-3.76-3.76s1.69-3.76 3.76-3.76h399.15c2.08 0 3.76 1.68 3.76 3.76 0 2.07-1.68 3.76-3.76 3.76M998.66 793.77H713.91c-2.08 0-3.76-1.68-3.76-3.76s1.69-3.76 3.76-3.76h284.74c2.08 0 3.76 1.68 3.76 3.76a3.747 3.747 0 0 1-3.75 3.76"/></svg>